{
  "accessors": [
    {
      "bufferView": 2,
      "componentType": 5126,
      "count": 65532,
      "max": [
        -0.6728065609931946,
        50.47281265258789,
        52.79317092895508
      ],
      "min": [
        -3.1731438636779785,
        -77.05192565917969,
        -25.718210220336914
      ],
      "type": "VEC3"
    },
    {
      "bufferView": 2,
      "byteOffset": 786384,
      "componentType": 5126,
      "count": 65532,
      "max": [
        0.9975811243057251,
        0.9493879079818726,
        0.9998282790184021
      ],
      "min": [
        -1.0,
        -0.9994260668754578,
        -0.9816715121269226
      ],
      "type": "VEC3"
    },
    {
      "bufferView": 1,
      "componentType": 5126,
      "count": 65532,
      "max": [
        0.3169350028038025,
        0.9394000172615051
      ],
      "min": [
        0.004573749843984842,
        0.7462490200996399
      ],
      "type": "VEC2"
    },
    {
      "bufferView": 0,
      "componentType": 5125,
      "count": 358872,
      "type": "SCALAR"
    },
    {
      "bufferView": 2,
      "byteOffset": 1572768,
      "componentType": 5126,
      "count": 65532,
      "max": [
        202.1754608154297,
        51.276973724365234,
        52.51620864868164
      ],
      "min": [
        -3.1731438636779785,
        -76.85954284667969,
        -25.58993148803711
      ],
      "type": "VEC3"
    },
    {
      "bufferView": 2,
      "byteOffset": 2359152,
      "componentType": 5126,
      "count": 65532,
      "max": [
        0.9997650980949402,
        0.9999349117279053,
        0.999956488609314
      ],
      "min": [
        -1.0,
        -0.9998024702072144,
        -0.9999922513961792
      ],
      "type": "VEC3"
    },
    {
      "bufferView": 1,
      "byteOffset": 524256,
      "componentType": 5126,
      "count": 65532,
      "max": [
        0.9977480173110962,
        0.9955139756202698
      ],
      "min": [
        0.0039531998336315155,
        0.0005097989924252033
      ],
      "type": "VEC2"
    },
    {
      "bufferView": 0,
      "byteOffset": 1435488,
      "componentType": 5125,
      "count": 274440,
      "type": "SCALAR"
    },
    {
      "bufferView": 2,
      "byteOffset": 3145536,
      "componentType": 5126,
      "count": 65532,
      "max": [
        200.13795471191406,
        51.49716567993164,
        48.78289031982422
      ],
      "min": [
        -2.072409152984619,
        -77.93477630615234,
        -34.343509674072266
      ],
      "type": "VEC3"
    },
    {
      "bufferView": 2,
      "byteOffset": 3931920,
      "componentType": 5126,
      "count": 65532,
      "max": [
        0.9999651312828064,
        0.9996482133865356,
        0.9999892711639404
      ],
      "min": [
        -0.999987006187439,
        -0.9999817609786987,
        -0.9999724626541138
      ],
      "type": "VEC3"
    },
    {
      "bufferView": 1,
      "byteOffset": 1048512,
      "componentType": 5126,
      "count": 65532,
      "max": [
        0.9941160082817078,
        0.9858829975128174
      ],
      "min": [
        0.0026531799230724573,
        0.0005291100242175162
      ],
      "type": "VEC2"
    },
    {
      "bufferView": 0,
      "byteOffset": 2533248,
      "componentType": 5125,
      "count": 314700,
      "type": "SCALAR"
    },
    {
      "bufferView": 2,
      "byteOffset": 4718304,
      "componentType": 5126,
      "count": 65532,
      "max": [
        201.5906524658203,
        51.01277160644531,
        51.09088897705078
      ],
      "min": [
        -2.0767643451690674,
        -76.76407623291016,
        -25.060791015625
      ],
      "type": "VEC3"
    },
    {
      "bufferView": 2,
      "byteOffset": 5504688,
      "componentType": 5126,
      "count": 65532,
      "max": [
        0.9999992847442627,
        0.9999994039535522,
        0.9999973177909851
      ],
      "min": [
        -0.9999788403511047,
        -0.9999257326126099,
        -0.9999842047691345
      ],
      "type": "VEC3"
    },
    {
      "bufferView": 1,
      "byteOffset": 1572768,
      "componentType": 5126,
      "count": 65532,
      "max": [
        0.9973340034484863,
        0.993586003780365
      ],
      "min": [
        0.003700230037793517,
        0.0004926319816149771
      ],
      "type": "VEC2"
    },
    {
      "bufferView": 0,
      "byteOffset": 3792048,
      "componentType": 5125,
      "count": 318729,
      "type": "SCALAR"
    },
    {
      "bufferView": 2,
      "byteOffset": 6291072,
      "componentType": 5126,
      "count": 65532,
      "max": [
        201.75369262695313,
        51.68865966796875,
        53.298458099365234
      ],
      "min": [
        -2.517951726913452,
        -77.29768371582031,
        -34.30870819091797
      ],
      "type": "VEC3"
    },
    {
      "bufferView": 2,
      "byteOffset": 7077456,
      "componentType": 5126,
      "count": 65532,
      "max": [
        0.9999651312828064,
        0.9999545812606812,
        0.9999830722808838
      ],
      "min": [
        -0.9933351874351501,
        -0.9998620748519897,
        -0.999994695186615
      ],
      "type": "VEC3"
    },
    {
      "bufferView": 1,
      "byteOffset": 2097024,
      "componentType": 5126,
      "count": 65532,
      "max": [
        0.9977279901504517,
        0.9897099733352661
      ],
      "min": [
        0.002108080079779029,
        0.0005229039816185832
      ],
      "type": "VEC2"
    },
    {
      "bufferView": 0,
      "byteOffset": 5066964,
      "componentType": 5125,
      "count": 314178,
      "type": "SCALAR"
    },
    {
      "bufferView": 2,
      "byteOffset": 7863840,
      "componentType": 5126,
      "count": 65532,
      "max": [
        198.0264129638672,
        51.22290802001953,
        53.25835037231445
      ],
      "min": [
        -2.3765861988067627,
        -65.57557678222656,
        -25.54335594177246
      ],
      "type": "VEC3"
    },
    {
      "bufferView": 2,
      "byteOffset": 8650224,
      "componentType": 5126,
      "count": 65532,
      "max": [
        0.9993831515312195,
        0.999967098236084,
        1.0
      ],
      "min": [
        -0.9995745420455933,
        -0.9999730587005615,
        -0.9998033046722412
      ],
      "type": "VEC3"
    },
    {
      "bufferView": 1,
      "byteOffset": 2621280,
      "componentType": 5126,
      "count": 65532,
      "max": [
        0.9974449872970581,
        0.9977380037307739
      ],
      "min": [
        0.005138259846717119,
        0.0005568860215134919
      ],
      "type": "VEC2"
    },
    {
      "bufferView": 0,
      "byteOffset": 6323676,
      "componentType": 5125,
      "count": 308424,
      "type": "SCALAR"
    },
    {
      "bufferView": 2,
      "byteOffset": 9436608,
      "componentType": 5126,
      "count": 65532,
      "max": [
        204.0784454345703,
        51.15639114379883,
        53.190765380859375
      ],
      "min": [
        -2.4199013710021973,
        -75.5813980102539,
        -28.36384391784668
      ],
      "type": "VEC3"
    },
    {
      "bufferView": 2,
      "byteOffset": 10222992,
      "componentType": 5126,
      "count": 65532,
      "max": [
        0.9998236894607544,
        0.9999834895133972,
        0.9999983310699463
      ],
      "min": [
        -0.9995745420455933,
        -0.9999961256980896,
        -0.9998883605003357
      ],
      "type": "VEC3"
    },
    {
      "bufferView": 1,
      "byteOffset": 3145536,
      "componentType": 5126,
      "count": 65532,
      "max": [
        0.9969959855079651,
        0.9976999759674072
      ],
      "min": [
        0.011103199794888496,
        0.0004919469938613474
      ],
      "type": "VEC2"
    },
    {
      "bufferView": 0,
      "byteOffset": 7557372,
      "componentType": 5125,
      "count": 285762,
      "type": "SCALAR"
    },
    {
      "bufferView": 2,
      "byteOffset": 11009376,
      "componentType": 5126,
      "count": 65532,
      "max": [
        203.99180603027344,
        51.060611724853516,
        52.21840286254883
      ],
      "min": [
        -2.173461675643921,
        -74.59422302246094,
        -32.01051330566406
      ],
      "type": "VEC3"
    },
    {
      "bufferView": 2,
      "byteOffset": 11795760,
      "componentType": 5126,
      "count": 65532,
      "max": [
        0.9999894499778748,
        0.9999459385871887,
        1.0
      ],
      "min": [
        -0.9999755620956421,
        -0.9999730587005615,
        -0.9999544620513916
      ],
      "type": "VEC3"
    },
    {
      "bufferView": 1,
      "byteOffset": 3669792,
      "componentType": 5126,
      "count": 65532,
      "max": [
        0.9976440072059631,
        0.9971349835395813
      ],
      "min": [
        0.004730749875307083,
        0.0004981160163879395
      ],
      "type": "VEC2"
    },
    {
      "bufferView": 0,
      "byteOffset": 8700420,
      "componentType": 5125,
      "count": 269580,
      "type": "SCALAR"
    },
    {
      "bufferView": 2,
      "byteOffset": 12582144,
      "componentType": 5126,
      "count": 65532,
      "max": [
        201.02210998535156,
        51.09148025512695,
        52.81928634643555
      ],
      "min": [
        -2.4187519550323486,
        -77.68907165527344,
        -34.30870819091797
      ],
      "type": "VEC3"
    },
    {
      "bufferView": 2,
      "byteOffset": 13368528,
      "componentType": 5126,
      "count": 65532,
      "max": [
        0.9999791383743286,
        0.9991748332977295,
        0.9998981356620789
      ],
      "min": [
        -0.9994091987609863,
        -0.9999987483024597,
        -0.9999696016311646
      ],
      "type": "VEC3"
    },
    {
      "bufferView": 1,
      "byteOffset": 4194048,
      "componentType": 5126,
      "count": 65532,
      "max": [
        0.9970600008964539,
        0.9975910186767578
      ],
      "min": [
        0.002108080079779029,
        0.00050604302668944
      ],
      "type": "VEC2"
    },
    {
      "bufferView": 0,
      "byteOffset": 9778740,
      "componentType": 5125,
      "count": 284133,
      "type": "SCALAR"
    },
    {
      "bufferView": 2,
      "byteOffset": 14154912,
      "componentType": 5126,
      "count": 65532,
      "max": [
        203.99307250976563,
        50.87014389038086,
        53.25835037231445
      ],
      "min": [
        -3.1731438636779785,
        -77.68907165527344,
        -34.39280700683594
      ],
      "type": "VEC3"
    },
    {
      "bufferView": 2,
      "byteOffset": 14941296,
      "componentType": 5126,
      "count": 65532,
      "max": [
        0.9999894499778748,
        0.999944806098938,
        0.9999983310699463
      ],
      "min": [
        -0.9990440011024475,
        -0.9999023079872131,
        -0.9999988079071045
      ],
      "type": "VEC3"
    },
    {
      "bufferView": 1,
      "byteOffset": 4718304,
      "componentType": 5126,
      "count": 65532,
      "max": [
        0.9977279901504517,
        0.9978110194206238
      ],
      "min": [
        0.002108080079779029,
        0.0004902480286546052
      ],
      "type": "VEC2"
    },
    {
      "bufferView": 0,
      "byteOffset": 10915272,
      "componentType": 5125,
      "count": 216456,
      "type": "SCALAR"
    },
    {
      "bufferView": 2,
      "byteOffset": 15727680,
      "componentType": 5126,
      "count": 65532,
      "max": [
        203.86282348632813,
        51.09749984741211,
        53.17377471923828
      ],
      "min": [
        -2.46057391166687,
        -77.93058776855469,
        -34.29236602783203
      ],
      "type": "VEC3"
    },
    {
      "bufferView": 2,
      "byteOffset": 16514064,
      "componentType": 5126,
      "count": 65532,
      "max": [
        0.9999992847442627,
        0.9999114274978638,
        0.9999561309814453
      ],
      "min": [
        -0.9991870522499084,
        -0.9999618530273438,
        -0.9999922513961792
      ],
      "type": "VEC3"
    },
    {
      "bufferView": 1,
      "byteOffset": 5242560,
      "componentType": 5126,
      "count": 65532,
      "max": [
        0.9977369904518127,
        0.9976919889450073
      ],
      "min": [
        0.0007031859713606536,
        0.0004884899826720357
      ],
      "type": "VEC2"
    },
    {
      "bufferView": 0,
      "byteOffset": 11781096,
      "componentType": 5125,
      "count": 154854,
      "type": "SCALAR"
    },
    {
      "bufferView": 2,
      "byteOffset": 17300448,
      "componentType": 5126,
      "count": 11374,
      "max": [
        204.0784454345703,
        51.121238708496094,
        53.214839935302734
      ],
      "min": [
        -1.8839001655578613,
        -77.66636657714844,
        -34.3033561706543
      ],
      "type": "VEC3"
    },
    {
      "bufferView": 2,
      "byteOffset": 17436936,
      "componentType": 5126,
      "count": 11374,
      "max": [
        0.9986281991004944,
        0.9998600482940674,
        0.9998149871826172
      ],
      "min": [
        -0.9985954761505127,
        -0.9999074935913086,
        -0.9993513226509094
      ],
      "type": "VEC3"
    },
    {
      "bufferView": 1,
      "byteOffset": 5766816,
      "componentType": 5126,
      "count": 11374,
      "max": [
        0.9974200129508972,
        0.9977790117263794
      ],
      "min": [
        0.002108080079779029,
        0.0005001429817639291
      ],
      "type": "VEC2"
    },
    {
      "bufferView": 0,
      "byteOffset": 12400512,
      "componentType": 5125,
      "count": 19485,
      "type": "SCALAR"
    }
  ],
  "asset": {
    "extras": {
      "author": "ADrealtime (https://sketchfab.com/ADrealtime)",
      "license": "CC-BY-4.0 (http://creativecommons.org/licenses/by/4.0/)",
      "source": "https://sketchfab.com/3d-models/african-figure-fa35e6c2e0b6413c9ea8c11629531974",
      "title": "African Figure"
    },
    "generator": "Sketchfab-13.86.0",
    "version": "2.0"
  },
  "bufferViews": [
    {
      "buffer": 0,
      "byteLength": 12478452,
      "name": "floatBufferViews",
      "target": 34963
    },
    {
      "buffer": 0,
      "byteLength": 5857808,
      "byteOffset": 12478452,
      "byteStride": 8,
      "name": "floatBufferViews",
      "target": 34962
    },
    {
      "buffer": 0,
      "byteLength": 17573424,
      "byteOffset": 18336260,
      "byteStride": 12,
      "name": "floatBufferViews",
      "target": 34962
    }
  ],
  "buffers": [
    {
      "byteLength": 35909684,
      "uri": "scene7.bin"
    }
  ],
  "images": [
    {
      "uri": "textures7/material_baseColor.jpeg"
    }
  ],
  "materials": [
    {
      "doubleSided": true,
      "name": "material",
      "pbrMetallicRoughness": {
        "baseColorTexture": {
          "index": 0
        },
        "metallicFactor": 0.0
      }
    }
  ],
  "meshes": [
    {
      "name": "Object_0",
      "primitives": [
        {
          "attributes": {
            "NORMAL": 1,
            "POSITION": 0,
            "TEXCOORD_0": 2
          },
          "indices": 3,
          "material": 0,
          "mode": 4
        }
      ]
    },
    {
      "name": "Object_1",
      "primitives": [
        {
          "attributes": {
            "NORMAL": 5,
            "POSITION": 4,
            "TEXCOORD_0": 6
          },
          "indices": 7,
          "material": 0,
          "mode": 4
        }
      ]
    },
    {
      "name": "Object_2",
      "primitives": [
        {
          "attributes": {
            "NORMAL": 9,
            "POSITION": 8,
            "TEXCOORD_0": 10
          },
          "indices": 11,
          "material": 0,
          "mode": 4
        }
      ]
    },
    {
      "name": "Object_3",
      "primitives": [
        {
          "attributes": {
            "NORMAL": 13,
            "POSITION": 12,
            "TEXCOORD_0": 14
          },
          "indices": 15,
          "material": 0,
          "mode": 4
        }
      ]
    },
    {
      "name": "Object_4",
      "primitives": [
        {
          "attributes": {
            "NORMAL": 17,
            "POSITION": 16,
            "TEXCOORD_0": 18
          },
          "indices": 19,
          "material": 0,
          "mode": 4
        }
      ]
    },
    {
      "name": "Object_5",
      "primitives": [
        {
          "attributes": {
            "NORMAL": 21,
            "POSITION": 20,
            "TEXCOORD_0": 22
          },
          "indices": 23,
          "material": 0,
          "mode": 4
        }
      ]
    },
    {
      "name": "Object_6",
      "primitives": [
        {
          "attributes": {
            "NORMAL": 25,
            "POSITION": 24,
            "TEXCOORD_0": 26
          },
          "indices": 27,
          "material": 0,
          "mode": 4
        }
      ]
    },
    {
      "name": "Object_7",
      "primitives": [
        {
          "attributes": {
            "NORMAL": 29,
            "POSITION": 28,
            "TEXCOORD_0": 30
          },
          "indices": 31,
          "material": 0,
          "mode": 4
        }
      ]
    },
    {
      "name": "Object_8",
      "primitives": [
        {
          "attributes": {
            "NORMAL": 33,
            "POSITION": 32,
            "TEXCOORD_0": 34
          },
          "indices": 35,
          "material": 0,
          "mode": 4
        }
      ]
    },
    {
      "name": "Object_9",
      "primitives": [
        {
          "attributes": {
            "NORMAL": 37,
            "POSITION": 36,
            "TEXCOORD_0": 38
          },
          "indices": 39,
          "material": 0,
          "mode": 4
        }
      ]
    },
    {
      "name": "Object_10",
      "primitives": [
        {
          "attributes": {
            "NORMAL": 41,
            "POSITION": 40,
            "TEXCOORD_0": 42
          },
          "indices": 43,
          "material": 0,
          "mode": 4
        }
      ]
    },
    {
      "name": "Object_11",
      "primitives": [
        {
          "attributes": {
            "NORMAL": 45,
            "POSITION": 44,
            "TEXCOORD_0": 46
          },
          "indices": 47,
          "material": 0,
          "mode": 4
        }
      ]
    }
  ],
  "nodes": [
    {
      "children": [
        1
      ],
      "matrix": [
        2.220446049250313e-16,
        1.0,
        2.220446049250313e-16,
        0.0,
        0.0,
        2.220446049250313e-16,
        -1.0,
        0.0,
        -1.0,
        2.220446049250313e-16,
        4.930380657631324e-32,
        0.0,
        0.0,
        0.0,
        0.0,
        1.0
      ],
      "name": "Sketchfab_model"
    },
    {
      "children": [
        2,
        3,
        4,
        5,
        6,
        7,
        8,
        9,
        10,
        11,
        12,
        13
      ],
      "name": "Escultura africa 1.obj.cleaner.materialmerger.gles"
    },
    {
      "mesh": 0,
      "name": "Object_2"
    },
    {
      "mesh": 1,
      "name": "Object_3"
    },
    {
      "mesh": 2,
      "name": "Object_4"
    },
    {
      "mesh": 3,
      "name": "Object_5"
    },
    {
      "mesh": 4,
      "name": "Object_6"
    },
    {
      "mesh": 5,
      "name": "Object_7"
    },
    {
      "mesh": 6,
      "name": "Object_8"
    },
    {
      "mesh": 7,
      "name": "Object_9"
    },
    {
      "mesh": 8,
      "name": "Object_10"
    },
    {
      "mesh": 9,
      "name": "Object_11"
    },
    {
      "mesh": 10,
      "name": "Object_12"
    },
    {
      "mesh": 11,
      "name": "Object_13"
    }
  ],
  "samplers": [
    {
      "magFilter": 9729,
      "minFilter": 9987,
      "wrapS": 10497,
      "wrapT": 10497
    }
  ],
  "scene": 0,
  "scenes": [
    {
      "name": "Sketchfab_Scene",
      "nodes": [
        0
      ]
    }
  ],
  "textures": [
    {
      "sampler": 0,
      "source": 0
    }
  ]
}
