{
  "accessors": [
    {
      "bufferView": 2,
      "componentType": 5126,
      "count": 65532,
      "max": [
        0.08537600189447403,
        0.002644999884068966,
        0.01774900034070015
      ],
      "min": [
        -0.08496399968862534,
        -0.2297240048646927,
        -0.1483590006828308
      ],
      "type": "VEC3"
    },
    {
      "bufferView": 2,
      "byteOffset": 786384,
      "componentType": 5126,
      "count": 65532,
      "max": [
        0.999999463558197,
        1.0,
        0.9999828934669495
      ],
      "min": [
        -0.9999964833259583,
        -0.9999970197677612,
        -0.9999996423721313
      ],
      "type": "VEC3"
    },
    {
      "bufferView": 1,
      "componentType": 5126,
      "count": 65532,
      "max": [
        0.9890530109405518,
        0.999904990196228
      ],
      "min": [
        0.00011700000322889537,
        5.2999999752501026e-05
      ],
      "type": "VEC2"
    },
    {
      "bufferView": 0,
      "componentType": 5125,
      "count": 361350,
      "type": "SCALAR"
    },
    {
      "bufferView": 2,
      "byteOffset": 1572768,
      "componentType": 5126,
      "count": 65532,
      "max": [
        0.0852390006184578,
        0.002644999884068966,
        0.017906999215483665
      ],
      "min": [
        -0.0858360007405281,
        -0.20650599896907806,
        -0.14834800362586975
      ],
      "type": "VEC3"
    },
    {
      "bufferView": 2,
      "byteOffset": 2359152,
      "componentType": 5126,
      "count": 65532,
      "max": [
        0.9999972581863403,
        0.9999077320098877,
        0.9999334812164307
      ],
      "min": [
        -0.9999997615814209,
        -0.9999992251396179,
        -0.9999881386756897
      ],
      "type": "VEC3"
    },
    {
      "bufferView": 1,
      "byteOffset": 524256,
      "componentType": 5126,
      "count": 65532,
      "max": [
        0.9938560128211975,
        0.9910320043563843
      ],
      "min": [
        0.00014099999680183828,
        0.002500999951735139
      ],
      "type": "VEC2"
    },
    {
      "bufferView": 0,
      "byteOffset": 1445400,
      "componentType": 5125,
      "count": 355245,
      "type": "SCALAR"
    },
    {
      "bufferView": 2,
      "byteOffset": 3145536,
      "componentType": 5126,
      "count": 65532,
      "max": [
        0.08518300205469131,
        0.0017330000409856439,
        0.018654000014066696
      ],
      "min": [
        -0.0859069973230362,
        -0.22927899658679962,
        -0.14880399405956268
      ],
      "type": "VEC3"
    },
    {
      "bufferView": 2,
      "byteOffset": 3931920,
      "componentType": 5126,
      "count": 65532,
      "max": [
        0.999991238117218,
        0.9932975172996521,
        0.9999984502792358
      ],
      "min": [
        -0.9999997615814209,
        -0.9999909996986389,
        -0.9999986290931702
      ],
      "type": "VEC3"
    },
    {
      "bufferView": 1,
      "byteOffset": 1048512,
      "componentType": 5126,
      "count": 65532,
      "max": [
        0.9893730282783508,
        0.9823909997940063
      ],
      "min": [
        0.011727999895811081,
        0.0067980000749230385
      ],
      "type": "VEC2"
    },
    {
      "bufferView": 0,
      "byteOffset": 2866380,
      "componentType": 5125,
      "count": 344607,
      "type": "SCALAR"
    },
    {
      "bufferView": 2,
      "byteOffset": 4718304,
      "componentType": 5126,
      "count": 23301,
      "max": [
        0.0849590003490448,
        0.002644999884068966,
        0.018654000014066696
      ],
      "min": [
        -0.0858210027217865,
        -0.2024250030517578,
        -0.1484539955854416
      ],
      "type": "VEC3"
    },
    {
      "bufferView": 2,
      "byteOffset": 4997916,
      "componentType": 5126,
      "count": 23301,
      "max": [
        0.9999167323112488,
        0.9930309057235718,
        0.9999944567680359
      ],
      "min": [
        -0.9999997615814209,
        -0.9999982118606567,
        -0.9999595880508423
      ],
      "type": "VEC3"
    },
    {
      "bufferView": 1,
      "byteOffset": 1572768,
      "componentType": 5126,
      "count": 23301,
      "max": [
        0.9939259886741638,
        0.9601349830627441
      ],
      "min": [
        0.04502899944782257,
        3.199999991920777e-05
      ],
      "type": "VEC2"
    },
    {
      "bufferView": 0,
      "byteOffset": 4244808,
      "componentType": 5125,
      "count": 92088,
      "type": "SCALAR"
    }
  ],
  "asset": {
    "extras": {
      "author": "PaolaBianchi (https://sketchfab.com/PaolaBianchi)",
      "license": "CC-BY-4.0 (http://creativecommons.org/licenses/by/4.0/)",
      "source": "https://sketchfab.com/3d-models/african-wooden-vase-82f48011591d48a8872f92bc6e5fc49a",
      "title": "African Wooden vase"
    },
    "generator": "Sketchfab-15.25.0",
    "version": "2.0"
  },
  "bufferViews": [
    {
      "buffer": 0,
      "byteLength": 4613160,
      "name": "floatBufferViews",
      "target": 34963
    },
    {
      "buffer": 0,
      "byteLength": 1759176,
      "byteOffset": 4613160,
      "byteStride": 8,
      "name": "floatBufferViews",
      "target": 34962
    },
    {
      "buffer": 0,
      "byteLength": 5277528,
      "byteOffset": 6372336,
      "byteStride": 12,
      "name": "floatBufferViews",
      "target": 34962
    }
  ],
  "buffers": [
    {
      "byteLength": 11649864,
      "uri": "scene2.bin"
    }
  ],
  "extensionsRequired": [
    "KHR_materials_pbrSpecularGlossiness"
  ],
  "extensionsUsed": [
    "KHR_materials_pbrSpecularGlossiness"
  ],
  "images": [
    {
      "uri": "textures2/Bianchi_edited_model_diffuse.jpeg"
    }
  ],
  "materials": [
    {
      "doubleSided": true,
      "extensions": {
        "KHR_materials_pbrSpecularGlossiness": {
          "diffuseFactor": [
            1.0,
            1.0,
            1.0,
            1.0
          ],
          "diffuseTexture": {
            "index": 0
          },
          "glossinessFactor": 0.0,
          "specularFactor": [
            1.0,
            1.0,
            1.0
          ],
          "specularGlossinessTexture": {
            "index": 0
          }
        }
      },
      "name": "Bianchi_edited_model"
    }
  ],
  "meshes": [
    {
      "name": "Object_0",
      "primitives": [
        {
          "attributes": {
            "NORMAL": 1,
            "POSITION": 0,
            "TEXCOORD_0": 2
          },
          "indices": 3,
          "material": 0,
          "mode": 4
        }
      ]
    },
    {
      "name": "Object_1",
      "primitives": [
        {
          "attributes": {
            "NORMAL": 5,
            "POSITION": 4,
            "TEXCOORD_0": 6
          },
          "indices": 7,
          "material": 0,
          "mode": 4
        }
      ]
    },
    {
      "name": "Object_2",
      "primitives": [
        {
          "attributes": {
            "NORMAL": 9,
            "POSITION": 8,
            "TEXCOORD_0": 10
          },
          "indices": 11,
          "material": 0,
          "mode": 4
        }
      ]
    },
    {
      "name": "Object_3",
      "primitives": [
        {
          "attributes": {
            "NORMAL": 13,
            "POSITION": 12,
            "TEXCOORD_0": 14
          },
          "indices": 15,
          "material": 0,
          "mode": 4
        }
      ]
    }
  ],
  "nodes": [
    {
      "children": [
        1
      ],
      "matrix": [
        1.155316710472107,
        0.0,
        0.0,
        0.0,
        0.0,
        -1.155316710472107,
        -5.130636850801315e-16,
        0.0,
        0.0,
        5.130636850801315e-16,
        -1.155316710472107,
        0.0,
        0.0,
        0.0,
        0.0,
        1.0
      ],
      "name": "Sketchfab_model"
    },
    {
      "children": [
        2,
        3,
        4,
        5
      ],
      "name": "Bianchi_edited_model.obj.cleaner.materialmerger.gles"
    },
    {
      "mesh": 0,
      "name": "Object_2"
    },
    {
      "mesh": 1,
      "name": "Object_3"
    },
    {
      "mesh": 2,
      "name": "Object_4"
    },
    {
      "mesh": 3,
      "name": "Object_5"
    }
  ],
  "samplers": [
    {
      "magFilter": 9729,
      "minFilter": 9987,
      "wrapS": 10497,
      "wrapT": 10497
    }
  ],
  "scene": 0,
  "scenes": [
    {
      "name": "Sketchfab_Scene",
      "nodes": [
        0
      ]
    }
  ],
  "textures": [
    {
      "sampler": 0,
      "source": 0
    }
  ]
}
