{
  "accessors": [
    {
      "bufferView": 2,
      "componentType": 5126,
      "count": 7946,
      "max": [
        0.8580160140991211,
        0.5552229881286621,
        1.353806972503662
      ],
      "min": [
        -0.6957200169563293,
        -0.5542640089988708,
        -1.137030005455017
      ],
      "type": "VEC3"
    },
    {
      "bufferView": 2,
      "byteOffset": 95352,
      "componentType": 5126,
      "count": 7946,
      "max": [
        0.999885082244873,
        0.9996604323387146,
        0.9995260834693909
      ],
      "min": [
        -0.9998168349266052,
        -0.9990267157554626,
        -0.9999980926513672
      ],
      "type": "VEC3"
    },
    {
      "bufferView": 3,
      "componentType": 5126,
      "count": 7946,
      "max": [
        0.9999874234199524,
        0.9999719262123108,
        0.9999030828475952,
        1.0
      ],
      "min": [
        -0.9999991655349731,
        -0.9996457695960999,
        -0.9998742938041687,
        1.0
      ],
      "type": "VEC4"
    },
    {
      "bufferView": 1,
      "componentType": 5126,
      "count": 7946,
      "max": [
        0.9785379767417908,
        0.9952960014343262
      ],
      "min": [
        0.01705300062894821,
        0.014297000132501125
      ],
      "type": "VEC2"
    },
    {
      "bufferView": 0,
      "componentType": 5125,
      "count": 41961,
      "type": "SCALAR"
    }
  ],
  "asset": {
    "extras": {
      "author": "Anna Zuber (https://sketchfab.com/aniazu)",
      "license": "CC-BY-4.0 (http://creativecommons.org/licenses/by/4.0/)",
      "source": "https://sketchfab.com/3d-models/african-head-sculpture-1e4d5a433f3d4b68b0a41248950220da",
      "title": "African head sculpture"
    },
    "generator": "Sketchfab-12.67.0",
    "version": "2.0"
  },
  "bufferViews": [
    {
      "buffer": 0,
      "byteLength": 167844,
      "name": "floatBufferViews",
      "target": 34963
    },
    {
      "buffer": 0,
      "byteLength": 63568,
      "byteOffset": 167844,
      "byteStride": 8,
      "name": "floatBufferViews",
      "target": 34962
    },
    {
      "buffer": 0,
      "byteLength": 190704,
      "byteOffset": 231412,
      "byteStride": 12,
      "name": "floatBufferViews",
      "target": 34962
    },
    {
      "buffer": 0,
      "byteLength": 127136,
      "byteOffset": 422116,
      "byteStride": 16,
      "name": "floatBufferViews",
      "target": 34962
    }
  ],
  "buffers": [
    {
      "byteLength": 549252,
      "uri": "scene5.bin"
    }
  ],
  "images": [
    {
      "uri": "textures5/defaultMat.001_baseColor.jpeg"
    },
    {
      "uri": "textures5/defaultMat.001_normal.png"
    }
  ],
  "materials": [
    {
      "doubleSided": true,
      "name": "defaultMat.001",
      "normalTexture": {
        "index": 1
      },
      "pbrMetallicRoughness": {
        "baseColorTexture": {
          "index": 0
        },
        "metallicFactor": 0.0,
        "roughnessFactor": 0.0
      }
    }
  ],
  "meshes": [
    {
      "name": "Object_0",
      "primitives": [
        {
          "attributes": {
            "NORMAL": 1,
            "POSITION": 0,
            "TANGENT": 2,
            "TEXCOORD_0": 3
          },
          "indices": 4,
          "material": 0,
          "mode": 4
        }
      ]
    }
  ],
  "nodes": [
    {
      "children": [
        1
      ],
      "matrix": [
        1.0,
        0.0,
        0.0,
        0.0,
        0.0,
        2.220446049250313e-16,
        -1.0,
        0.0,
        0.0,
        1.0,
        2.220446049250313e-16,
        0.0,
        0.0,
        0.0,
        0.0,
        1.0
      ],
      "name": "Sketchfab_model"
    },
    {
      "children": [
        2
      ],
      "name": "sketchfab.obj.cleaner.materialmerger.gles"
    },
    {
      "mesh": 0,
      "name": "Object_2"
    }
  ],
  "samplers": [
    {
      "magFilter": 9729,
      "minFilter": 9987,
      "wrapS": 10497,
      "wrapT": 10497
    }
  ],
  "scene": 0,
  "scenes": [
    {
      "name": "Sketchfab_Scene",
      "nodes": [
        0
      ]
    }
  ],
  "textures": [
    {
      "sampler": 0,
      "source": 0
    },
    {
      "sampler": 0,
      "source": 1
    }
  ]
}
